<?xml version="1.0" encoding="UTF-8" standalone="no"?>
<!-- Created with Inkscape (http://www.inkscape.org/) -->

<svg
   xmlns:dc="http://purl.org/dc/elements/1.1/"
   xmlns:cc="http://creativecommons.org/ns#"
   xmlns:rdf="http://www.w3.org/1999/02/22-rdf-syntax-ns#"
   xmlns:svg="http://www.w3.org/2000/svg"
   xmlns="http://www.w3.org/2000/svg"
   xmlns:sodipodi="http://sodipodi.sourceforge.net/DTD/sodipodi-0.dtd"
   xmlns:inkscape="http://www.inkscape.org/namespaces/inkscape"
   version="1.1"
   id="svg844"
   width="320"
   height="320"
   viewBox="0 0 320 320"
   sodipodi:docname="logo.svg"
   inkscape:version="0.92.3 (2405546, 2018-03-11)">
  <metadata
     id="metadata850">
    <rdf:RDF>
      <cc:Work
         rdf:about="">
        <dc:format>image/svg+xml</dc:format>
        <dc:type
           rdf:resource="http://purl.org/dc/dcmitype/StillImage" />
        <dc:title></dc:title>
      </cc:Work>
    </rdf:RDF>
  </metadata>
  <defs
     id="defs848" />
  <sodipodi:namedview
     pagecolor="#ffffff"
     bordercolor="#666666"
     borderopacity="1"
     objecttolerance="10"
     gridtolerance="10"
     guidetolerance="10"
     inkscape:pageopacity="0"
     inkscape:pageshadow="2"
     inkscape:window-width="1594"
     inkscape:window-height="872"
     id="namedview846"
     showgrid="false"
     inkscape:zoom="2.059375"
     inkscape:cx="106.07325"
     inkscape:cy="192.12069"
     inkscape:window-x="1024"
     inkscape:window-y="22"
     inkscape:window-maximized="0"
     inkscape:current-layer="svg844" />
  <circle
     style="fill:#ffffff;fill-opacity:1;stroke:none;stroke-width:7.55905533;stroke-linecap:butt;stroke-linejoin:miter;stroke-miterlimit:4;stroke-dasharray:none;stroke-dashoffset:20.71300125;stroke-opacity:1;paint-order:markers fill stroke"
     id="path1537"
     cx="160.34908"
     cy="156.21733"
     r="150.735" />
  <circle
     style="fill:#051f57;fill-opacity:1;stroke:none;stroke-width:7.55905533;stroke-linecap:butt;stroke-linejoin:miter;stroke-miterlimit:4;stroke-dasharray:none;stroke-dashoffset:20.71300125;stroke-opacity:1;paint-order:markers fill stroke"
     id="path1503"
     cx="160.64217"
     cy="218.90135"
     r="16.028721" />
  <path
     style="fill:#051f57;fill-opacity:1;stroke-width:1"
     d="M 141.08672,313.7401 C 73.868464,305.80179 18.742851,254.4219 5.0171346,186.91626 L 2.8313976,176.1664 c -1.6238963,-13.4049 -1.767064,-25.4714 -0.02515,-39.2 l 2.179208,-10.65189 C 17.956001,62.915008 65.420294,15.114848 129.37984,1.0398783 c 20.31315,-4.47012 54.98456,-3.17188 74.10688,2.77486 52.88189,16.4454497 92.17586,54.1706097 107.85786,103.5516617 35.278,111.08681 -54.60186,220.03237 -170.25786,206.3737 z m 58.46853,-25.51552 c 8.57006,-2.32156 30.60501,-12.46945 35.47395,-16.33703 l 1.94248,-1.54298 -3.69578,-8.28908 c -4.74595,-10.64447 -5.77068,-14.55649 -5.05797,-19.3092 0.47661,-3.17832 2.86879,-5.78669 2.86879,-3.12806 0,3.5656 14.38977,4.93823 22.96322,2.19043 20.44914,-6.55396 34.36674,-26.25036 41.2345,-58.35567 l 1.72982,-8.08659 c 1.97185,-12.46681 1.86091,-24.05126 0.0724,-36.8 l -1.75581,-8.4 C 285.19656,81.682728 252.46444,43.781098 206.28672,27.059148 c -14.35051,-5.19663 -28.12542,-7.49255 -45.2,-7.53366 -7.9358,-0.731283 -15.45387,0.301133 -23.2,1.696 -22.57405,4.06499 -38.878986,10.88981 -57.396066,24.02447 -3.40783,2.41727 -6.08671,4.50438 -5.95306,4.63803 0.13364,0.13365 5.80297,-2.53812 12.59849,-5.93727 43.617266,-21.81752 77.728966,-19.8309 101.420266,5.90659 10.04135,10.9086 12.40952,16.81169 13.31705,33.19512 0.66776,12.05505 1.16026,15.84242 2.46669,18.969132 1.14941,2.75093 10.7861,16.65424 13.6884,19.74889 0.8253,0.88 4.54581,5.2 8.2678,9.6 3.72199,4.4 6.95247,8.18 7.17884,8.4 4.51682,4.38963 11.20388,14.02241 11.2086,16.14609 0.008,3.45565 -2.40229,2.89709 -38.79701,-8.99211 -25.37209,-8.28839 -34.70046,-10.47828 -49.25349,-11.56257 l -6.85349,-0.51063 -4.49255,3.65961 c -6.75071,5.49909 -9.32098,4.97631 -6.14466,-1.24978 0.91069,-1.78511 1.46622,-3.43525 1.2345,-3.66696 -0.97865,-0.97866 -2.77942,0.65029 -3.29031,2.97635 -0.96332,4.38598 -4.35698,3.92192 -4.38775,-0.6 -0.0254,-3.72732 -8.08379,-1.00115 -13.48146,4.56078 -4.62843,4.76928 -5.7694,8.82638 -5.32153,18.92255 0.36184,8.15713 0.0785,9.28441 -1.84926,7.35667 l -0.96,-0.96 v 1.74066 c 0,0.95737 0.69066,2.87637 1.53481,4.26446 1.62148,2.6663 1.43881,4.71488 -0.4204,4.71488 -2.06821,0 -1.2463,4.96962 1.3181,7.96978 2.38615,2.79162 3.04675,4.83022 1.56519,4.83022 -0.44128,0 0.66913,1.32936 2.46756,2.95413 4.47998,4.0474 8.24045,11.91116 12.91928,27.01635 6.39801,20.65539 11.4881,29.42543 19.3795,33.39016 6.28251,3.1564 8.42011,6.42891 10.39913,15.92031 0.71669,3.43727 1.87321,6.51099 2.79768,7.43546 l 1.57594,1.57593 6.6316,-0.10017 c 7.6906,-0.11618 13.00189,-1.5886 28.31487,-7.84963 12.36599,-5.05608 16.24314,-5.90185 18.17932,-3.96567 4.45944,4.45943 -1.61551,10.78468 -20.48777,21.33192 -5.72651,3.2004 -5.56899,3.27934 2.29372,1.14939 z m -33.0288,-180.95176 c 14.16013,-7.15441 9.78177,-27.506422 -5.91751,-27.506422 -10.35383,0 -17.22632,10.472412 -13.19208,20.1023 2.99172,7.141332 12.40842,10.789892 19.10959,7.404122 z"
     id="path1452"
     inkscape:connector-curvature="0"
     sodipodi:nodetypes="ssccssssscccscsscccssccscsssccsccsscsccccscccssssscssccccscsccssss" />
</svg>
